Coordinates
version=1
nRows=12
nColumns=24
inDegrees=yes

Units are S.I. units (second, meters, Newtons, ...)
Angles are in degrees.

endheader
time	pelvis_tilt	pelvis_list	pelvis_rotation	pelvis_tx	pelvis_ty	pelvis_tz	hip_flexion_r	hip_adduction_r	hip_rotation_r	knee_angle_r	ankle_angle_r	subtalar_angle_r	mtp_angle_r	hip_flexion_l	hip_adduction_l	hip_rotation_l	knee_angle_l	ankle_angle_l	subtalar_angle_l	mtp_angle_l	lumbar_extension	lumbar_bending	lumbar_rotation
      0.94600000	      1.97553827	      0.97141183	     -2.43990272	     -0.18544115	      1.00950204	      0.27988843	    -12.04627523	      2.44108148	      1.83986973	    -11.26894295	     13.65627331	    -11.64461570	      6.71453897	     17.83245985	      0.34480752	     -8.74668814	     -0.16846612	      1.29200018	     -5.80522919	      4.65074094	    -11.10923936	     -1.13356665	      9.35451997
      0.95016667	      2.00170207	      1.00480353	     -2.44243523	     -0.17963062	      1.00895221	      0.27950062	    -12.09519776	      2.37628376	      1.75463421	    -11.96429939	     13.82759712	    -11.53545254	      6.62592417	     17.72914736	      0.44849729	     -8.45396681	     -0.13633004	      1.23764165	     -5.90187862	      4.75959481	    -11.12632889	     -1.19643669	      9.38433700
      0.95433333	      2.04863695	      1.04382257	     -2.44670086	     -0.17380368	      1.00846220	      0.27910598	    -12.13452430	      2.29894413	      1.63168112	    -12.72373097	     13.97518275	    -11.38478526	      6.54698115	     17.60482023	      0.55890115	     -8.13201434	     -0.18398212	      1.15369009	     -6.04926383	      4.88920817	    -11.14682050	     -1.26921852	      9.41213598
      0.95850000	      2.09366948	      1.09848068	     -2.43993268	     -0.16797251	      1.00801862	      0.27870611	    -12.14693715	      2.20573148	      1.50274016	    -13.53062902	     14.08331730	    -11.22738958	      6.47326256	     17.49591547	      0.68627565	     -7.77675197	     -0.32713600	      1.01652506	     -6.23899887	      5.06308372	    -11.18324200	     -1.36547104	      9.43761779
      0.96266667	      2.14636329	      1.16055138	     -2.44492993	     -0.16211340	      1.00761720	      0.27831434	    -12.13664701	      2.09951904	      1.38821733	    -14.40169403	     14.19344542	    -11.06843931	      6.44084603	     17.37411958	      0.81893032	     -7.40906374	     -0.53245324	      0.89850358	     -6.42334406	      5.21161242	    -11.21101349	     -1.47016370	      9.45403004
      0.96683333	      2.20047422	      1.24416115	     -2.42564429	     -0.15624722	      1.00726312	      0.27791360	    -12.11280856	      1.97793090	      1.27825504	    -15.30021132	     14.24722292	    -10.96938755	      6.43758570	     17.28032105	      0.97565208	     -7.04675415	     -0.85188944	      0.75511243	     -6.58014915	      5.31877354	    -11.26012659	     -1.61855189	      9.46946332
      0.97100000	      2.25575820	      1.31461660	     -2.42462942	     -0.15037610	      1.00694312	      0.27746870	    -12.02860912	      1.84553538	      1.07425522	    -16.31599916	     14.27031953	    -10.65554852	      6.46924954	     17.15826837	      1.12484028	     -6.61839077	     -1.16239575	      0.50006382	     -6.93401235	      5.52491772	    -11.28695120	     -1.71701805	      9.47099154
      0.97516667	      2.28255262	      1.40040288	     -2.41532035	     -0.14447551	      1.00661730	      0.27703458	    -11.88953891	      1.70448621	      0.91103873	    -17.38211105	     14.27132127	    -10.46490399	      6.52344782	     17.08030402	      1.28638948	     -6.20033780	     -1.54917369	      0.30723419	     -7.19380679	      5.68672349	    -11.27660793	     -1.85229537	      9.46671286
      0.97933333	      2.34654766	      1.49879184	     -2.39791712	     -0.13858525	      1.00637576	      0.27657421	    -11.75898580	      1.54069288	      0.70860322	    -18.50306868	     14.22128182	    -10.20083945	      6.61506293	     16.96872200	      1.46665943	     -5.78331451	     -1.98003198	      0.05617463	     -7.50417594	      5.86104662	    -11.31808277	     -2.00169990	      9.45650547
      0.98350000	      2.45229422	      1.60132816	     -2.36070958	     -0.13267866	      1.00624793	      0.27607122	    -11.66198398	      1.37033565	      0.49141399	    -19.63649072	     14.04908911	     -9.98243103	      6.99513425	     16.78941697	      1.66786269	     -5.25445101	     -2.38937149	     -0.30032429	     -8.04895055	      6.39871203	    -11.41619269	     -2.15602143	      9.42925939
      0.98766667	      2.50660485	      1.71026984	     -2.32421450	     -0.12677798	      1.00605713	      0.27554114	    -11.44794018	      1.18018879	      0.22308167	    -20.88979745	     13.90444442	     -9.64332009	      7.55330444	     16.70562148	      1.86458584	     -4.84780076	     -2.91014032	     -0.55313652	     -8.36640747	      6.99506795	    -11.44666425	     -2.31150047	      9.40698048
      0.99183333	      2.50901849	      1.81886099	     -2.32880042	     -0.12088130	      1.00584061	      0.27507954	    -11.12885726	      0.98933950	      0.05006128	    -22.22812945	     13.72030862	     -9.43695725	      7.71382463	     16.69075777	      2.03723303	     -4.58999798	     -3.47920118	     -0.81216974	     -8.52847757	      7.12516117	    -11.40404448	     -2.47031722	      9.36663227
